<svg width="91" height="93" viewBox="0 0 91 93" fill="none" xmlns="http://www.w3.org/2000/svg">
<path d="M83.2448 0.821099C83.2448 0.821099 91.6623 -3.20446 90.9582 6.57113C90.7263 10.5967 88.6225 24.6875 86.9845 39.9261L81.3727 85.0708C81.3727 85.0708 80.9047 91.6844 76.6949 92.8349C72.4872 93.9828 66.1734 88.8094 65.0034 87.6588C64.0674 86.7952 47.4663 73.855 41.6205 67.5311C39.9825 65.8039 38.1105 62.355 41.8545 58.3294L66.4074 29.5739C69.2133 26.1196 72.0192 18.0685 60.3277 27.8468L27.5891 55.1621C27.5891 55.1621 23.8472 58.0398 16.8336 55.4517L1.63215 49.699C1.63215 49.699 -3.97957 45.3865 5.60802 41.074C28.9931 27.5598 57.7559 13.7587 83.2426 0.818442" fill="#88CC34"/>
</svg>
