<svg xmlns="http://www.w3.org/2000/svg" width="100%" height="100%" viewBox="0 0 3000 3000" version="1.1" xml:space="preserve" style="fill-rule:evenodd;clip-rule:evenodd;stroke-linejoin:round;stroke-miterlimit:2;">
    <g transform="matrix(7.21733,0,0,7.21733,-2834.84,-761.993)">
        <path d="M710.453,162.017C710.453,162.017 698.465,209.67 619.342,250.73C619.342,250.73 600.76,236.943 580.979,250.73C580.979,250.73 505.453,212.442 490.768,162.017C490.768,162.017 500.658,179.025 518.341,179.924C518.341,179.924 546.813,144.858 600.161,144.858C653.509,144.858 684.079,180.523 684.079,180.523C684.079,180.523 698.465,178.276 710.453,162.017Z" />
    </g>
    <g transform="matrix(7.21733,0,0,7.21733,-2834.84,-761.993)">
        <path d="M630.18,265.843C630.18,265.843 639.051,264.644 666.625,243.065C666.625,243.065 671.779,255.413 661.829,265.363C651.879,275.313 630.18,265.843 630.18,265.843Z" />
    </g>
    <g transform="matrix(-7.21733,0,0,7.21733,5827.92,-761.993)">
        <path d="M630.18,265.843C630.18,265.843 639.051,264.644 666.625,243.065C666.625,243.065 671.779,255.413 661.829,265.363C651.879,275.313 630.18,265.843 630.18,265.843Z" />
    </g>
    <g transform="matrix(7.21733,0,0,7.21733,-2834.84,-761.993)">
        <path d="M681.157,230.593C681.157,230.593 690.448,222.561 699.655,207.792C699.655,207.792 713.366,226.682 715.044,260.01C716.723,293.337 709.818,365.858 743.685,422.203L704.798,391.352L676.326,435.858L647.554,408.585L600.5,484.71L553.902,409.268L524.746,436.314L496.741,391.621L457.816,422.551C457.816,422.551 487.053,386.349 486.116,257.1C486.116,257.1 484.614,226.511 500.918,208.529C500.918,208.529 512.187,224.353 519.62,230.108C519.62,230.108 491.807,283.096 555.345,289.57L554.866,306.353L517.942,327.453L545.515,343.277C545.515,343.277 559.421,350.47 568.532,369.651C577.643,388.833 599.702,461.482 599.702,461.482C599.702,461.482 625.258,384.825 631.651,370.49C638.485,355.167 647.154,348.63 654.062,344.275L682.726,327.089L646.666,306.22L645.131,288.88C645.131,288.88 705.146,289.067 681.157,230.593Z" />
    </g>
    <g transform="matrix(7.21733,0,0,7.21733,-2834.84,-761.993)">
        <path d="M600.046,262.609C600.142,262.594 600.24,262.595 600.337,262.611C602.409,262.988 626.589,267.992 626.589,296.192L626.589,313.839C626.589,313.839 626.878,317.712 630.708,319.185L644.751,327.238C644.751,327.238 611.948,343.669 600.631,400.254C600.631,400.254 587.945,342.971 556.488,327.626L571.076,318.988C571.076,318.988 573.685,317.696 573.685,313.08L574.077,295.403C574.077,295.403 574.385,266.563 600.046,262.609Z" />
    </g>
</svg>